<?xml version="1.0" standalone="no"?>
<!DOCTYPE svg PUBLIC "-//W3C//DTD SVG 20010904//EN"
 "http://www.w3.org/TR/2001/REC-SVG-20010904/DTD/svg10.dtd">
<svg version="1.0" xmlns="http://www.w3.org/2000/svg"
 width="700.000000pt" height="700.000000pt" viewBox="0 0 700.000000 700.000000"
 preserveAspectRatio="xMidYMid meet">
<metadata>
Created by potrace 1.14, written by Peter Selinger 2001-2017
</metadata>
<g transform="translate(0.000000,700.000000) scale(0.100000,-0.100000)"
fill="#000000" stroke="none">
<path d="M3178 6995 c-2 -2 -52 -6 -113 -9 -60 -3 -128 -8 -150 -11 -22 -2
-85 -9 -140 -15 -108 -12 -126 -15 -195 -26 -25 -4 -54 -8 -65 -9 -91 -11
-414 -89 -560 -135 -354 -112 -695 -297 -960 -520 -65 -54 -244 -239 -301
-310 -246 -306 -414 -647 -532 -1085 -36 -129 -53 -203 -67 -290 -3 -16 -10
-52 -15 -80 -14 -71 -17 -95 -25 -161 -4 -33 -9 -68 -11 -79 -2 -11 -7 -51
-10 -90 -3 -38 -7 -81 -10 -95 -26 -158 -25 -980 1 -1165 2 -16 6 -55 9 -85
15 -172 82 -555 117 -670 5 -19 12 -46 15 -60 11 -54 105 -321 149 -424 96
-226 226 -444 370 -626 119 -150 328 -346 480 -451 28 -19 52 -37 55 -40 3 -3
34 -23 70 -45 276 -167 567 -286 896 -368 147 -37 149 -37 289 -61 140 -25
145 -25 225 -36 71 -9 99 -13 207 -24 256 -27 954 -27 1173 0 19 2 62 6 95 9
33 3 77 8 98 11 20 3 53 7 72 10 19 3 52 7 73 10 20 3 46 8 58 10 12 3 39 7
60 11 63 9 265 53 324 70 30 9 62 17 70 19 45 9 202 64 325 112 506 200 894
505 1183 933 82 121 110 170 191 335 58 119 151 354 177 450 17 63 64 244 70
267 14 60 42 203 48 243 2 17 9 62 15 100 13 84 19 129 27 215 3 36 8 76 10
90 26 171 25 930 -2 1170 -3 25 -7 63 -8 85 -6 64 -31 251 -41 304 -1 9 -10
57 -20 106 -38 206 -121 497 -193 675 -56 140 -154 335 -227 451 -132 211
-351 458 -540 608 -392 313 -906 520 -1530 616 -83 13 -274 36 -340 40 -44 4
-100 9 -125 11 -48 6 -767 14 -772 9z"/>
</g>
</svg>
